<?xml version="1.0" encoding="UTF-8" standalone="no"?>
<svg
   version="1.1"
   width="841.89"
   height="595.28"
   viewBox="0 0 841.89 595.28"
   id="svg30"
   sodipodi:docname="Grands Logo Vector F copy.svg"
   xmlns:inkscape="http://www.inkscape.org/namespaces/inkscape"
   xmlns:sodipodi="http://sodipodi.sourceforge.net/DTD/sodipodi-0.dtd"
   xmlns="http://www.w3.org/2000/svg"
   xmlns:svg="http://www.w3.org/2000/svg">
  <sodipodi:namedview
     id="namedview30"
     pagecolor="#ffffff"
     bordercolor="#000000"
     borderopacity="0.25"
     inkscape:showpageshadow="2"
     inkscape:pageopacity="0.0"
     inkscape:pagecheckerboard="0"
     inkscape:deskcolor="#d1d1d1" />
  <defs
     id="defs1">
    <clipPath
       id="clip_0">
      <path
         transform="matrix(1,0,0,-1,0,595.28)"
         d="M0 595.28H841.89V0H0Z"
         id="path1" />
    </clipPath>
  </defs>
  <g
     inkscape:groupmode="layer"
     inkscape:label="Layer 1"
     id="g30">
    <g
       clip-path="url(#clip_0)"
       id="g29">
      <path
         transform="matrix(1,0,0,-1,91.2202,270.19023)"
         d="M0 0C-.114 46.005 32.597 80.168 79.432 79.645 96.794 79.86 112.544 75.971 126.054 70.561 126.054 70.636 120.97 52.896 100.14 58.284 93.27 60.125 86.384 61.506 79.447 61.179 52.753 60.262 39.311 37.615 39.166 13.082 39.02-16.964 51.669-43.413 81.421-36.038 83.406-35.592 85.396-35.144 87.39-34.33 87.477-26.782 87.572-19.229 87.659-11.676 87.791-1.721 88.373 9.1 67.807 12.552 67.757 13.201 124.393 31.666 125.098 5.85 124.907-7.781 124.707-21.408 124.511-35.039 109.29-44.879 93.298-52.816 76.123-57.463 27.572-71.913 .132-47.434 0 0"
         fill="#007d83"
         id="path2" />
      <path
         transform="matrix(1,0,0,-1,230.229,299.94023)"
         d="M0 0C.242 16.542 .501 33.075 .733 49.617 .815 54.667-1.078 59.006-7.579 62.521 6.596 66.929 20.776 70.989 34.969 74.765 34.892 69.53 34.814 64.297 34.737 59.056 45.384 69.043 61.566 76.039 76.902 76.641 76.825 70.338 76.743 64.022 76.656 57.72 73.165 58.578 69.983 58.845 66.692 58.635 53.322 57.813 42.047 50.366 34.482 41.744 34.236 25.556 33.996 9.363 33.754-6.826 33.721-6.601-.773-15.145 0 0"
         fill="#007d83"
         id="path3" />
      <path
         transform="matrix(1,0,0,-1,362.5151,264.57594)"
         d="M0 0C-2.713-.117-5.435-.252-8.157-.38-18.955-.926-24.717-4.138-24.786-9.925-24.836-15.273-20.234-18.173-13.165-17.709-8.744-17.42-4.534-15.854-.091-12.41-.059-8.269-.023-4.138 0 0M-4.925 43.837C19.852 44.339 34.104 31.794 34.054 15.252 34.036 6.897 34.004-1.454 33.976-9.818 33.954-16.351 33.931-22.892 33.908-29.431 33.908-29.308 7.056-32.888 3.146-23.179-5.963-28.625-15.285-31.923-27.221-32.973-48.456-34.952-58.248-27.61-58.107-16.351-57.888-.678-38.009 9.202-9.828 10.394-6.522 10.545-3.208 10.675 .091 10.81 .105 12.653 .119 14.508 .132 16.355 .195 24.522-5.931 29.475-16.246 29.111-25.263 28.796-35.524 24.507-43.299 17.271-43.23 23.104-43.157 28.947-43.089 34.782-32.06 40.258-19.054 43.527-4.925 43.837"
         fill="#007d83"
         id="path4" />
      <path
         transform="matrix(1,0,0,-1,412.3091,293.8835)"
         d="M0 0C.028 18.176 .042 36.348 .069 54.523 .069 58.921-1.947 62.875-8.662 66.354 5.827 69.19 20.317 71.883 34.778 74.494 34.801 69.839 34.81 65.183 34.829 60.53 47.805 68.874 59.172 74.041 74.835 73.704 99.649 73.178 107.192 59.481 107.401 42.432 107.583 26.593 107.779 10.752 107.958-5.088 107.974-4.928 73.547-4.018 73.143 9.384 73.047 20.484 72.957 31.582 72.865 42.678 72.793 50.753 67.356 57.217 57.716 57.444 53.333 57.552 49.163 56.391 45.616 54.554 33.987 48.256 34.91 36.062 34.918 36.062 34.96 23.923 35 11.802 35.047-.339 23.372-.021 11.681 .098 0 0"
         fill="#007d83"
         id="path5" />
      <path
         transform="matrix(1,0,0,-1,672.6309,294.84455)"
         d="M0 0C9.177-12.291 23.738-21.588 33.146-24.164 40.817-26.271 45.814-23.963 45.778-17.687 45.751 2.138-5.086 7.864-5.491 35.781-5.718 54.386 16.364 63.526 40.485 61.33 52.88 60.094 63.713 55.808 72.981 48.186 72.963 48.067 67.382 33.533 45.832 40.718 43.206 41.576 40.617 42.562 37.954 42.922 30.226 43.962 24.717 41.677 24.764 37.102 24.936 23.597 78.147 19.323 78.039-18.646 78.007-44.002 54.933-48.619 29.992-40.836 13.146-35.729 .1-26.945-11.481-16.279-7.657-10.968-3.824-5.542 0 0"
         fill="#007d83"
         id="path6" />
      <path
         transform="matrix(1,0,0,-1,613.9912,290.86595)"
         d="M0 0C-5.74-2.133-12.182-2.734-17.989-1.807-38.086 1.464-46.644 19.451-46.813 31.837-47.01 44.84-37.764 53.765-21.258 52.542-14.348 51.989-7.63 49.771-.661 44.105-.432 29.399-.224 14.701 0 0M32.742 107.681C18.371 104.332 4.011 101.251-10.373 98.331-3.168 94.146-1.33 89.416-1.248 84.078-1.152 77.414-1.047 70.752-.951 64.091-7.647 65.75-14.348 66.655-20.812 67.04-60.914 69.019-82.373 49.433-82.092 26.737-81.809 3.357-58.221-12.002-33.822-16.273-20.174-18.549-7.07-16.906 2.631-12.518 2.786-12.9 3.41-14.252 3.919-14.916 7.266-19.265 12.627-22.479 17.93-24.838 26.324-28.57 34.572-30.118 34.572-30.108 33.963 15.818 33.348 61.751 32.742 107.681"
         fill="#007d83"
         id="path7" />
      <path
         transform="matrix(1,0,0,-1,688.0713,213.89823)"
         d="M0 0C-.072 7.14-6.647 13.124-14.695 13.349-22.738 13.569-29.201 8.308-29.111 1.607-29.052-3.223-25.633-7.605-20.726-9.973-21.627-13.085-24.609-16.353-32.738-17.521-32.729-17.327-7.057-25.815-.635-3.818-.219-2.633 .014-1.352 0 0"
         fill="#007d83"
         id="path8" />
      <path
         transform="matrix(1,0,0,-1,196.6001,350.9323)"
         d="M0 0C0 0 1.569-.945 4.51-2.715 7.482-4.428 11.711-7.121 17.397-10.107 18.804-10.872 20.301-11.676 21.863-12.508 23.429-13.352 25.062-14.242 26.802-15.082 30.243-16.812 34.003-18.652 38.035-20.6 42.105-22.459 46.453-24.389 51.041-26.431 53.371-27.379 55.748-28.36 58.188-29.346 60.636-30.316 63.122-31.406 65.703-32.346 68.289-33.295 70.938-34.265 73.624-35.266 74.98-35.758 76.336-36.252 77.707-36.753 79.096-37.214 80.488-37.684 81.908-38.146 84.73-39.08 87.612-40.021 90.53-40.975 93.46-41.898 96.47-42.742 99.497-43.637 105.546-45.533 111.878-46.99 118.324-48.674 121.552-49.482 124.838-50.167 128.152-50.895 129.818-51.258 131.489-51.619 133.15-51.99 134.829-52.363 136.527-52.629 138.221-52.971 141.622-53.604 145.049-54.236 148.504-54.877 151.981-55.408 155.473-55.93 158.992-56.465 160.753-56.721 162.52-57.011 164.29-57.242 166.07-57.448 167.854-57.664 169.634-57.885 171.423-58.082 173.216-58.3 175.015-58.504 176.813-58.711 178.62-58.928 180.432-59.057 184.046-59.364 187.678-59.66 191.325-59.972 194.966-60.293 198.645-60.404 202.313-60.588 204.152-60.676 205.986-60.76 207.826-60.855 209.669-60.926 211.504-60.926 213.347-60.971L218.887-61.07 221.65-61.129 223.034-61.154 223.725-61.162 224.537-61.158C238.87-61.027 254.038-60.384 268.408-58.971 272.018-58.615 275.619-58.168 279.192-57.771 280.981-57.555 282.756-57.338 284.536-57.11 286.311-56.845 288.083-56.579 289.84-56.319 293.358-55.775 296.854-55.284 300.319-54.699 303.778-54.086 307.209-53.416 310.596-52.779 314.001-52.182 317.352-51.387 320.657-50.679 323.979-49.93 327.27-49.297 330.489-48.428 336.93-46.753 343.249-45.238 349.302-43.361 361.474-39.893 372.754-35.848 383.069-31.979 388.204-29.959 393.079-27.928 397.721-26.02 402.292-23.951 406.625-21.997 410.708-20.148 414.728-18.169 418.493-16.339 421.933-14.596 423.665-13.747 425.293-12.855 426.86-12.012 428.407-11.172 429.895-10.357 431.302-9.595 436.959-6.608 441.23-3.875 444.18-2.17 447.116-.381 448.672 .567 448.672 .567 448.672 .567 446.97-.057 443.747-1.226 440.538-2.412 435.864-4.221 429.855-6.292 428.357-6.82 426.786-7.379 425.125-7.969 423.477-8.559 421.761-9.197 419.935-9.77 416.313-10.977 412.397-12.278 408.205-13.669 404.002-14.978 399.52-16.359 394.813-17.82 390.052-19.139 385.1-20.641 379.892-22.062 377.279-22.736 374.612-23.439 371.894-24.154 370.538-24.51 369.176-24.866 367.788-25.229 366.404-25.592 364.993-25.894 363.586-26.23 360.764-26.908 357.887-27.596 354.979-28.289 352.07-28.994 349.071-29.551 346.066-30.215 343.047-30.812 340.016-31.567 336.899-32.113 333.793-32.695 330.649-33.29 327.48-33.89 325.887-34.201 324.285-34.461 322.678-34.709 321.071-34.969 319.45-35.234 317.821-35.508 314.575-36.035 311.311-36.639 307.969-37.044 294.723-39.049 280.94-40.387 266.938-41.578 263.438-41.794 259.918-42.006 256.381-42.227 254.622-42.351 252.85-42.451 251.102-42.502 249.344-42.572 247.584-42.643 245.83-42.713 238.875-43.09 231.524-43.055 224.276-43.166 220.744-43.129 217.216-43.104 213.702-43.07 211.922-43.047 210.137-43.051 208.358-42.996 206.573-42.92 204.803-42.85 203.033-42.774 201.252-42.709 199.478-42.637 197.711-42.563 195.94-42.513 194.17-42.463 192.403-42.338 188.867-42.115 185.357-41.894 181.847-41.682 167.845-40.553 154.057-39.264 140.797-37.276 139.14-37.034 137.479-36.854 135.845-36.572 134.206-36.307 132.576-36.035 130.947-35.762 129.322-35.496 127.701-35.234 126.094-34.969 124.483-34.709 122.871-34.484 121.287-34.176 114.946-32.984 108.71-31.877 102.693-30.547 99.679-29.897 96.693-29.313 93.78-28.641 90.861-27.953 87.984-27.264 85.162-26.606 83.747-26.273 82.34-25.947 80.953-25.627 79.564-25.258 78.198-24.908 76.841-24.547 74.128-23.836 71.452-23.144 68.848-22.465 63.627-21.09 58.68-19.571 53.913-18.265 49.202-16.812 44.719-15.439 40.508-14.146 36.32-12.766 32.4-11.468 28.777-10.277 26.948-9.705 25.227-9.076 23.579-8.488 21.931-7.895 20.352-7.354 18.854-6.826 12.85-4.764 8.152-2.965 4.943-1.783 1.729-.619 0 0 0 0"
         fill="#007d83"
         id="path9" />
      <path
         transform="matrix(1,0,0,-1,276.6421,348.0114)"
         d="M0 0 3.245-.066C7.602-.066 9.782 2.729 9.782 8.308 9.782 13.89 7.465 16.679 2.841 16.679L0 16.607ZM-2.868-4.442-5.745-4.51-5.773-4.409-5.745-4.338V20.946L-5.773 21.05-5.745 21.126-2.868 21.05H0L2.599 21.126C11.488 21.126 15.931 16.85 15.931 8.308 15.931-.237 11.826-4.51 3.619-4.51L0-4.442Z"
         fill="#007d83"
         id="path10" />
      <path
         transform="matrix(1,0,0,-1,305.7656,340.41874)"
         d="M0 0C-.573 1.322-1.54 1.98-2.909 1.98-4.11 1.98-4.984 1.322-5.509 0ZM4.984-9.473C3.76-11.443 1.001-12.449-3.287-12.449-5.858-12.449-7.848-11.701-9.268-10.223-10.793-8.629-11.554-6.286-11.554-3.211-11.554-.146-10.761 2.197-9.167 3.789-7.684 5.267-5.599 6.016-2.909 6.016 2.836 6.016 5.704 2.82 5.704-3.557H-5.986C-5.917-6.66-5.016-8.207-3.287-8.207-1.233-8.207 .155-7.593 .887-6.357Z"
         fill="#007d83"
         id="path11" />
      <path
         transform="matrix(1,0,0,-1,314.9521,352.45384)"
         d="M0 0-2.563-.067-2.59 .033-2.563 .104V25.389L-2.59 25.492-2.563 25.568 0 25.492V25.568H2.571V.104L2.603 .033 2.571-.067Z"
         fill="#007d83"
         id="path12" />
      <path
         transform="matrix(1,0,0,-1,322.6445,352.45384)"
         d="M0 0-2.563-.067-2.594 .033-2.563 .104V17.539L-2.594 17.639-2.563 17.693 0 17.639V17.693H2.567V.104L2.604 .033 2.567-.067ZM2.412 25.68C3.086 25.018 3.423 24.207 3.423 23.283 3.423 22.343 3.086 21.539 2.412 20.866 1.739 20.196 .934 19.859 0 19.859-.929 19.859-1.735 20.196-2.404 20.866-3.078 21.539-3.418 22.343-3.418 23.283-3.418 24.207-3.078 25.018-2.404 25.68-1.735 26.353-.929 26.69 0 26.69 .934 26.69 1.739 26.353 2.412 25.68"
         fill="#007d83"
         id="path13" />
      <path
         transform="matrix(1,0,0,-1,343.6333,349.9616)"
         d="M0 0C-1.411-1.936-3.829-2.906-7.247-2.906-10.051-2.906-12.226-2.158-13.774-.68-15.445 .914-16.269 3.257-16.269 6.332-16.269 9.396-15.445 11.74-13.774 13.332-12.226 14.81-10.051 15.559-7.247 15.559-5.289 15.559-3.509 15.005-1.916 13.916-1.138 13.367-.614 12.925-.346 12.59L-.031 12.242-3.732 8.885C-5.367 10.644-6.541 11.523-7.247 11.523-9.541 11.523-10.697 9.789-10.697 6.332-10.697 2.999-9.541 1.336-7.247 1.336-5.972 1.336-4.825 2.043-3.792 3.461Z"
         fill="#007d83"
         id="path14" />
      <path
         transform="matrix(1,0,0,-1,347.3892,352.45384)"
         d="M0 0-2.563-.067-2.595 .033-2.563 .104V17.539L-2.595 17.639-2.563 17.693 0 17.639V17.693H2.562V.104L2.599 .033 2.562-.067ZM2.413 25.68C3.077 25.018 3.423 24.207 3.423 23.283 3.423 22.343 3.077 21.539 2.413 20.866 1.743 20.196 .933 19.859 0 19.859-.929 19.859-1.735 20.196-2.409 20.866-3.077 21.539-3.418 22.343-3.418 23.283-3.418 24.207-3.077 25.018-2.409 25.68-1.735 26.353-.929 26.69 0 26.69 .933 26.69 1.743 26.353 2.413 25.68"
         fill="#007d83"
         id="path15" />
      <path
         transform="matrix(1,0,0,-1,363.626,343.62965)"
         d="M0 0C0 3.623-.988 5.429-2.972 5.429-4.953 5.429-5.945 3.623-5.945 0-5.945-3.629-4.953-5.439-2.972-5.439-.988-5.439 0-3.629 0 0M-9.163 7C-7.702 8.478-5.645 9.227-2.972 9.227-.1 9.227 2.057 8.377 3.523 6.693 4.884 5.1 5.567 2.869 5.567 0 5.567-3.075 4.78-5.418 3.209-7.012 1.753-8.49-.305-9.238-2.972-9.238-5.822-9.238-7.975-8.387-9.427-6.699-10.82-5.111-11.516-2.871-11.516 0-11.516 3.064-10.729 5.408-9.163 7"
         fill="#007d83"
         id="path16" />
      <path
         transform="matrix(1,0,0,-1,386.3179,334.81523)"
         d="M0 0V-17.534L.041-17.605 0-17.706-1.298-17.676-5.125-17.706V-15.108C-6.214-17.072-7.739-18.053-9.705-18.053-11.726-18.053-13.156-17.398-13.974-16.098-14.726-14.936-15.108-13.025-15.108-10.357V.055L-12.545 0H-9.942V-10.357C-9.942-12.394-9.333-13.404-8.094-13.404-7.206-13.404-6.487-13.001-5.945-12.201-5.399-11.402-5.125-10.357-5.125-9.057V-.1L-5.158 0-5.125 .055-2.559 0Z"
         fill="#007d83"
         id="path17" />
      <path
         transform="matrix(1,0,0,-1,389.3999,351.0183)"
         d="M0 0C-.71 .391-1.198 .77-1.475 1.16L2.499 4.167C3.427 2.965 4.797 2.363 6.591 2.363 8.144 2.363 8.917 2.713 8.917 3.438 8.917 4.155 7.906 4.709 5.881 5.092 3.777 5.508 2.175 6.277 1.06 7.418-.037 8.514-.588 9.834-.588 11.373-.588 12.912 .054 14.132 1.329 15.037 2.586 15.967 4.264 16.443 6.354 16.443 8.084 16.443 9.855 15.902 11.648 14.797 12.245 14.436 12.668 14.132 12.918 13.877 13.05 13.746 13.173 13.61 13.259 13.5L9.768 10.565C8.589 11.952 7.452 12.646 6.354 12.646 4.993 12.646 4.3 12.247 4.3 11.46 4.3 10.654 5.23 10.063 7.069 9.676 9.299 9.238 11.034 8.457 12.267 7.309 13.428 6.223 14.016 4.904 14.016 3.382 14.016 1.859 13.328 .637 11.958-.271 10.615-1.205 8.831-1.673 6.591-1.673 4.224-1.673 2.062-1.14 .104-.066Z"
         fill="#007d83"
         id="path18" />
      <path
         transform="matrix(1,0,0,-1,407.2021,352.45384)"
         d="M0 0-2.563-.067-2.594 .033-2.563 .104V25.389L-2.594 25.492-2.563 25.568 0 25.492V25.568H2.567V.104L2.599 .033 2.567-.067Z"
         fill="#007d83"
         id="path19" />
      <path
         transform="matrix(1,0,0,-1,421.1123,334.76054)"
         d="M0 0 2.909-.055 5.814 0-.991-21.619C-1.333-22.811-1.965-23.605-2.903-24.013-3.818-24.449-5.416-24.67-7.687-24.67H-9.394V-20.188H-7.687C-6.002-20.188-5.102-20.022-4.988-19.674L-4.751-18.791-10.596 0-7.687-.055-4.787 0-2.693-10.649Z"
         fill="#007d83"
         id="path20" />
      <path
         transform="matrix(1,0,0,-1,442.5762,348.0114)"
         d="M0 0 3.25-.066C7.603-.066 9.778 2.729 9.778 8.308 9.778 13.89 7.466 16.679 2.841 16.679L0 16.607ZM-2.862-4.442-5.739-4.51-5.772-4.409-5.739-4.338V20.946L-5.772 21.05-5.739 21.126-2.862 21.05H0L2.604 21.126C11.489 21.126 15.932 16.85 15.932 8.308 15.932-.237 11.83-4.51 3.628-4.51L0-4.442Z"
         fill="#007d83"
         id="path21" />
      <path
         transform="matrix(1,0,0,-1,463.1201,352.45384)"
         d="M0 0-2.563-.067-2.604 .033-2.563 .104V17.539L-2.604 17.639-2.563 17.693 0 17.639V17.693H2.562V.104L2.598 .033 2.562-.067ZM2.413 25.68C3.076 25.018 3.418 24.207 3.418 23.283 3.418 22.343 3.076 21.539 2.413 20.866 1.733 20.196 .928 19.859 0 19.859-.93 19.859-1.738 20.196-2.414 20.866-3.082 21.539-3.424 22.343-3.424 23.283-3.424 24.207-3.082 25.018-2.414 25.68-1.738 26.353-.93 26.69 0 26.69 .928 26.69 1.733 26.353 2.413 25.68"
         fill="#007d83"
         id="path22" />
      <path
         transform="matrix(1,0,0,-1,469.9189,338.77613)"
         d="M0 0H-2.426V4.016H0V5.74C0 7.945 .447 9.523 1.335 10.488 2.242 11.424 3.757 11.891 5.847 11.891H9.506L9.465 7.649 9.4 7.614 9.291 7.649 7.211 7.686C5.847 7.71 5.163 7.057 5.163 5.74V4.016H9.433V0H5.163V-13.745L2.564-13.678 0-13.745Z"
         fill="#007d83"
         id="path23" />
      <path
         transform="matrix(1,0,0,-1,483.0518,338.77613)"
         d="M0 0H-2.43V4.016H0V5.74C0 7.945 .437 9.523 1.325 10.488 2.232 11.424 3.738 11.891 5.841 11.891H9.502L9.461 7.649 9.393 7.614 9.287 7.649 7.207 7.686C5.841 7.71 5.158 7.057 5.158 5.74V4.016H9.429V0H5.158V-13.745L2.555-13.678 0-13.745Z"
         fill="#007d83"
         id="path24" />
      <path
         transform="matrix(1,0,0,-1,505.6396,340.41874)"
         d="M0 0C-.569 1.322-1.539 1.98-2.909 1.98-4.119 1.98-4.984 1.322-5.512 0ZM4.984-9.473C3.765-11.443 .992-12.449-3.282-12.449-5.863-12.449-7.857-11.701-9.259-10.223-10.797-8.629-11.557-6.286-11.557-3.211-11.557-.146-10.756 2.197-9.163 3.789-7.68 5.267-5.6 6.016-2.909 6.016 2.842 6.016 5.699 2.82 5.699-3.557H-5.981C-5.918-6.66-5.012-8.207-3.282-8.207-1.229-8.207 .16-7.593 .883-6.357Z"
         fill="#007d83"
         id="path25" />
      <path
         transform="matrix(1,0,0,-1,522.5234,340.32304)"
         d="M0 0C-3.19 0-4.789-1.614-4.789-4.85V-12.198L-7.389-12.131-9.95-12.198V5.562L-8.271 5.536-4.789 5.562V2.869C-3.597 4.68-1.835 5.562 .514 5.562H.855V0Z"
         fill="#007d83"
         id="path26" />
      <path
         transform="matrix(1,0,0,-1,536.9756,340.41874)"
         d="M0 0C-.569 1.322-1.528 1.98-2.904 1.98-4.11 1.98-4.975 1.322-5.494 0ZM4.989-9.473C3.773-11.443 1.006-12.449-3.271-12.449-5.854-12.449-7.848-11.701-9.254-10.223-10.784-8.629-11.553-6.286-11.553-3.211-11.553-.146-10.752 2.197-9.154 3.789-7.679 5.267-5.594 6.016-2.904 6.016 2.846 6.016 5.713 2.82 5.713-3.557H-5.967C-5.908-6.66-5.008-8.207-3.271-8.207-1.233-8.207 .168-7.593 .893-6.357Z"
         fill="#007d83"
         id="path27" />
      <path
         transform="matrix(1,0,0,-1,557.0459,352.45384)"
         d="M0 0-2.559-.067-2.6 .033-2.559 .104V10.692C-2.559 12.389-3.351 13.226-4.922 13.226-5.837 13.226-6.57 12.964-7.115 12.447-7.684 11.914-7.967 11.226-7.967 10.362V-.067L-10.57 0-13.123-.067V17.693L-11.453 17.667-7.967 17.693V15.654C-6.71 17.136-5.039 17.879-2.941 17.879-1.235 17.879 .096 17.273 1.057 16.066 2.057 14.809 2.566 13.02 2.566 10.692V.104L2.6 .033 2.566-.067Z"
         fill="#007d83"
         id="path28" />
      <path
         transform="matrix(1,0,0,-1,571.0195,338.77613)"
         d="M0 0H-3.173V-8.618C-3.173-9-3.122-9.252-3.009-9.342-2.849-9.473-2.485-9.543-1.912-9.543H0V-13.745H-4.169C-6.04-13.745-7.224-13.373-7.729-12.613-8.11-12.047-8.312-10.72-8.312-8.618V0H-10.046V4.016H-8.312V11.926H-3.173V4.016H0Z"
         fill="#007d83"
         id="path29" />
    </g>
  </g>
</svg>
